<svg width="495" height="195" viewBox="0 0 495 195" xmlns="http://www.w3.org/2000/svg">
  <rect width="495" height="195" fill="#0d1117" rx="8"/>
  <rect x="10" y="10" width="475" height="175" fill="#0d1117" stroke="#30363d" stroke-width="1" rx="6"/>
  <text x="247" y="35" font-family="Segoe UI, Ubuntu, sans-serif" font-size="16" font-weight="bold" fill="#9D50FF" text-anchor="middle">GitHub Profile Stats</text>
  <line x1="20" y1="42" x2="475" y2="42" stroke="#30363d" stroke-width="1"/>
  
  <g font-family="Segoe UI, Ubuntu, sans-serif" font-size="12" fill="#e8e2ff">
    <circle cx="30" cy="65" r="6" fill="#FF61D2"/>
    <text x="45" y="69">Total Stars: <tspan font-weight="bold" fill="#9D50FF">1</tspan></text>
    
    <circle cx="30" cy="88" r="6" fill="#FF61D2"/>
    <text x="45" y="92">Total Forks: <tspan font-weight="bold" fill="#9D50FF">0</tspan></text>
    
    <circle cx="30" cy="111" r="6" fill="#FF61D2"/>
    <text x="45" y="115">Total Commits: <tspan font-weight="bold" fill="#9D50FF">473</tspan></text>
    
    <circle cx="30" cy="134" r="6" fill="#FF61D2"/>
    <text x="45" y="138">Total Issues: <tspan font-weight="bold" fill="#9D50FF">0</tspan></text>
    
    <circle cx="30" cy="157" r="6" fill="#FF61D2"/>
    <text x="45" y="161">Total PRs: <tspan font-weight="bold" fill="#9D50FF">4</tspan></text>
    
    <circle cx="280" cy="65" r="6" fill="#FF61D2"/>
    <text x="295" y="69">Total Repos: <tspan font-weight="bold" fill="#9D50FF">20</tspan></text>
    
    <circle cx="280" cy="88" r="6" fill="#FF61D2"/>
    <text x="295" y="92">Contributions (Year): <tspan font-weight="bold" fill="#9D50FF">558</tspan></text>
    
    <circle cx="280" cy="111" r="6" fill="#FF61D2"/>
    <text x="295" y="115">Followers: <tspan font-weight="bold" fill="#9D50FF">3</tspan></text>
    
    <circle cx="280" cy="134" r="6" fill="#FF61D2"/>
    <text x="295" y="138">Following: <tspan font-weight="bold" fill="#9D50FF">3</tspan></text>
    
    <circle cx="280" cy="157" r="6" fill="#FF61D2"/>
    <text x="295" y="161">Updated: <tspan font-weight="bold" fill="#9D50FF">2026-08-29</tspan></text>
  </g>
</svg>