<svg width="565" height="275" xmlns="http://www.w3.org/2000/svg">
    <rect width="100%" height="100%" fill="#282c34" rx="10"/>
    <text x="282.5" y="28" text-anchor="middle" font-size="18" font-weight="bold" fill="#61afef">GitHub Trophies</text>
    
      <rect x="20" y="60" width="120" height="90" rx="8" fill="#282c34" stroke="#3e4451"/>
      <text x="80" y="85" text-anchor="middle" font-size="24" fill="#61afef">🏆</text>
      <text x="80" y="110" text-anchor="middle" font-size="16" font-weight="bold" fill="#abb2bf">23</text>
      <text x="80" y="132" text-anchor="middle" font-size="11" fill="#61afef">Repositories</text>
    
      <rect x="155" y="60" width="120" height="90" rx="8" fill="#282c34" stroke="#3e4451"/>
      <text x="215" y="85" text-anchor="middle" font-size="24" fill="#61afef">⭐</text>
      <text x="215" y="110" text-anchor="middle" font-size="16" font-weight="bold" fill="#abb2bf">1</text>
      <text x="215" y="132" text-anchor="middle" font-size="11" fill="#61afef">Total Stars</text>
    
      <rect x="290" y="60" width="120" height="90" rx="8" fill="#282c34" stroke="#3e4451"/>
      <text x="350" y="85" text-anchor="middle" font-size="24" fill="#61afef">🍴</text>
      <text x="350" y="110" text-anchor="middle" font-size="16" font-weight="bold" fill="#abb2bf">0</text>
      <text x="350" y="132" text-anchor="middle" font-size="11" fill="#61afef">Total Forks</text>
    
      <rect x="425" y="60" width="120" height="90" rx="8" fill="#282c34" stroke="#3e4451"/>
      <text x="485" y="85" text-anchor="middle" font-size="24" fill="#61afef">👥</text>
      <text x="485" y="110" text-anchor="middle" font-size="16" font-weight="bold" fill="#abb2bf">3</text>
      <text x="485" y="132" text-anchor="middle" font-size="11" fill="#61afef">Followers</text>
    
      <rect x="20" y="165" width="120" height="90" rx="8" fill="#282c34" stroke="#3e4451"/>
      <text x="80" y="190" text-anchor="middle" font-size="24" fill="#61afef">🔥</text>
      <text x="80" y="215" text-anchor="middle" font-size="16" font-weight="bold" fill="#abb2bf">593</text>
      <text x="80" y="237" text-anchor="middle" font-size="11" fill="#61afef">Total Commits</text>
    
      <rect x="155" y="165" width="120" height="90" rx="8" fill="#282c34" stroke="#3e4451"/>
      <text x="215" y="190" text-anchor="middle" font-size="24" fill="#61afef">📝</text>
      <text x="215" y="215" text-anchor="middle" font-size="16" font-weight="bold" fill="#abb2bf">4</text>
      <text x="215" y="237" text-anchor="middle" font-size="11" fill="#61afef">Total PRs</text>
    
      <rect x="290" y="165" width="120" height="90" rx="8" fill="#282c34" stroke="#3e4451"/>
      <text x="350" y="190" text-anchor="middle" font-size="24" fill="#61afef">🐛</text>
      <text x="350" y="215" text-anchor="middle" font-size="16" font-weight="bold" fill="#abb2bf">0</text>
      <text x="350" y="237" text-anchor="middle" font-size="11" fill="#61afef">Total Issues</text>
    
      <rect x="425" y="165" width="120" height="90" rx="8" fill="#282c34" stroke="#3e4451"/>
      <text x="485" y="190" text-anchor="middle" font-size="24" fill="#61afef">📅</text>
      <text x="485" y="215" text-anchor="middle" font-size="16" font-weight="bold" fill="#abb2bf">3</text>
      <text x="485" y="237" text-anchor="middle" font-size="11" fill="#61afef">Years on GitHub</text>
    
  </svg>